<svg width="44" height="36" viewBox="0 0 44 36" fill="none" xmlns="http://www.w3.org/2000/svg">
<path d="M30.0009 36H14.0009C13.4705 36 12.9618 35.7893 12.5867 35.4142C12.2117 35.0391 12.0009 34.5304 12.0009 34V18.14L9.40094 20.24C8.62094 21 7.36094 21 6.58094 20.24L0.920937 14.58C0.140938 13.8 0.140938 12.54 0.920937 11.76L12.6809 0H16.0009C16.0009 2.2 18.6809 4 22.0009 4C25.3209 4 28.0009 2.2 28.0009 0H31.3209L43.0809 11.76C43.8609 12.54 43.8609 13.8 43.0809 14.58L37.4209 20.24C36.6409 21 35.3809 21 34.6009 20.24L32.0009 18.14V34C32.0009 34.5304 31.7902 35.0391 31.4152 35.4142C31.0401 35.7893 30.5314 36 30.0009 36ZM38.8409 13.16L30.2209 4.56C29.6009 5.26 28.8609 5.88 28.0009 6.4C26.3209 7.4 24.2609 8 22.0009 8C18.6009 8 15.5809 6.64 13.7809 4.56L5.16094 13.16L8.00094 16L14.0009 12H16.0009V32H28.0009V12H30.0009L36.0009 16L38.8409 13.16Z" fill="black"/>
</svg>
