<svg width="32" height="39" viewBox="0 0 32 39" fill="none" xmlns="http://www.w3.org/2000/svg">
<path d="M16 33.5753L24.6625 24.9128C26.3756 23.1996 27.5422 21.0169 28.0147 18.6406C28.4873 16.2644 28.2446 13.8014 27.3174 11.5631C26.3902 9.32475 24.8201 7.41164 22.8056 6.06565C20.7911 4.71965 18.4228 4.00124 16 4.00124C13.5772 4.00124 11.2089 4.71965 9.1944 6.06565C7.17993 7.41164 5.60981 9.32475 4.6826 11.5631C3.75539 13.8014 3.51273 16.2644 3.9853 18.6406C4.45786 21.0169 5.62444 23.1996 7.33751 24.9128L16 33.5753ZM16 38.5243L4.86301 27.3874C2.66035 25.1847 1.16033 22.3783 0.552625 19.3231C-0.0550768 16.2679 0.256837 13.1011 1.44892 10.2232C2.64101 7.34525 4.65973 4.88545 7.2498 3.15483C9.83987 1.4242 12.885 0.500488 16 0.500488C19.1151 0.500488 22.1601 1.4242 24.7502 3.15483C27.3403 4.88545 29.359 7.34525 30.5511 10.2232C31.7432 13.1011 32.0551 16.2679 31.4474 19.3231C30.8397 22.3783 29.3397 25.1847 27.137 27.3874L16 38.5243ZM16 19.7504C16.9283 19.7504 17.8185 19.3816 18.4749 18.7252C19.1313 18.0688 19.5 17.1786 19.5 16.2503C19.5 15.3221 19.1313 14.4319 18.4749 13.7755C17.8185 13.1191 16.9283 12.7504 16 12.7504C15.0717 12.7504 14.1815 13.1191 13.5251 13.7755C12.8688 14.4319 12.5 15.3221 12.5 16.2503C12.5 17.1786 12.8688 18.0688 13.5251 18.7252C14.1815 19.3816 15.0717 19.7504 16 19.7504ZM16 23.2503C14.1435 23.2503 12.363 22.5129 11.0503 21.2001C9.7375 19.8873 9.00001 18.1069 9.00001 16.2503C9.00001 14.3938 9.7375 12.6134 11.0503 11.3006C12.363 9.98785 14.1435 9.25035 16 9.25035C17.8565 9.25035 19.637 9.98785 20.9498 11.3006C22.2625 12.6134 23 14.3938 23 16.2503C23 18.1069 22.2625 19.8873 20.9498 21.2001C19.637 22.5129 17.8565 23.2503 16 23.2503Z" fill="white"/>
</svg>
