<svg width="36" height="32" viewBox="0 0 36 32" fill="none" xmlns="http://www.w3.org/2000/svg">
<path d="M31.8 2C31.4 0.8 30.2 0 29 0H7C5.6 0 4.6 0.8 4.2 2L0 14V30C0 31 1 32 2 32H4C5.2 32 6 31 6 30V28H30V30C30 31 31 32 32 32H34C35 32 36 31 36 30V14L31.8 2ZM7.6 4H28.2L30.4 10H5.6L7.6 4ZM32 24H4V14H32V24ZM9 16C10.6 16 12 17.4 12 19C12 20.6 10.6 22 9 22C7.4 22 6 20.6 6 19C6 17.4 7.4 16 9 16ZM27 16C28.6 16 30 17.4 30 19C30 20.6 28.6 22 27 22C25.4 22 24 20.6 24 19C24 17.4 25.4 16 27 16Z" fill="white"/>
</svg>
