<svg width="58" height="58" viewBox="0 0 58 58" fill="none" xmlns="http://www.w3.org/2000/svg">
<path d="M48.0973 40.8894L27.6957 20.4849C28.1062 18.7814 28.0526 16.999 27.5406 15.3231C27.0287 13.6473 26.0769 12.1393 24.7845 10.956C23.4921 9.77276 21.9062 8.95745 20.1918 8.59494C18.4774 8.23242 16.6972 8.33595 15.0364 8.89476L12.9241 9.60465L18.8582 15.5504L15.5116 18.8971L9.58032 12.9658L8.87042 15.0665C8.2794 16.7954 8.18745 18.6559 8.60512 20.4347C9.02278 22.2135 9.93316 23.8386 11.2319 25.1239C12.4184 26.3084 13.8881 27.1698 15.5014 27.6262C17.1146 28.0826 18.8178 28.1189 20.449 27.7316L40.8534 48.139C41.4926 48.7754 42.3579 49.1328 43.2598 49.1328C44.1618 49.1328 45.0271 48.7754 45.6662 48.139L48.1002 45.6993C48.7372 45.061 49.0949 44.1961 49.0949 43.2943C49.0949 42.3926 48.7372 41.5276 48.1002 40.8894H48.0973ZM43.2584 46.3744C43.1738 46.3751 43.09 46.3587 43.0118 46.3264C42.9337 46.294 42.8628 46.2463 42.8035 46.1861L21.2197 24.6052L20.4084 24.8776C19.1659 25.3008 17.8293 25.3661 16.5515 25.0658C15.2736 24.7656 14.106 24.1119 13.182 23.1796C11.9114 21.9071 11.1728 20.1988 11.116 18.4016L15.5116 22.8L22.7554 15.5562L18.3657 11.1548C19.466 11.1875 20.5434 11.4774 21.5115 12.0013C22.4797 12.5253 23.3117 13.2686 23.9409 14.1719C24.5701 15.0752 24.9791 16.1132 25.135 17.203C25.2909 18.2927 25.1894 19.4038 24.8388 20.4472L24.5664 21.2585L46.1472 42.8394C46.2077 42.8987 46.2557 42.9695 46.2885 43.0476C46.3213 43.1257 46.3382 43.2096 46.3382 43.2943C46.3382 43.379 46.3213 43.4629 46.2885 43.541C46.2557 43.6191 46.2077 43.6899 46.1472 43.7492L43.7104 46.1861C43.6513 46.2458 43.5809 46.2933 43.5033 46.3256C43.4257 46.3579 43.3425 46.3745 43.2584 46.3744Z" fill="white"/>
<path d="M21.7785 30.4824L10.0377 41.5452C9.77171 41.7957 9.55875 42.0971 9.41142 42.4315C9.26409 42.7658 9.18539 43.1264 9.17999 43.4917C9.17458 43.857 9.24258 44.2197 9.37996 44.5583C9.51733 44.8969 9.72128 45.2044 9.97972 45.4627L13.3119 48.7949C13.5642 49.048 13.8641 49.2488 14.1943 49.3855C14.5245 49.5223 14.8785 49.5923 15.2359 49.5917H15.2822C15.9927 49.5814 16.6708 49.2933 17.1714 48.7891L17.2236 48.734L28.2864 36.9874L21.7785 30.4824ZM24.4413 37.0453L15.2388 46.8187L11.9529 43.5329L21.7321 34.3275L24.4413 37.0453Z" fill="white"/>
<path d="M44.5071 9.10352L35.3886 13.6613L35.2321 17.8019L30.7148 22.0758L36.7041 28.0621L40.9721 23.5304L45.1214 23.3826L49.6821 14.2611L44.5071 9.10352ZM34.6555 22.1424L37.9587 19.0334L38.0949 15.3999L43.9653 12.4589L46.3094 14.8059L43.3713 20.6821L39.7291 20.8096L36.6287 24.1012L34.6555 22.1424Z" fill="white"/>
</svg>
